<svg xmlns="http://www.w3.org/2000/svg" version="1.1" xmlns:xlink="http://www.w3.org/1999/xlink" xmlns:svgjs="http://svgjs.dev/svgjs" width="600" height="400" preserveAspectRatio="none" viewBox="0 0 600 400"><g mask="url(&quot;#SvgjsMask1230&quot;)" fill="none"><circle r="6.195" cx="350.575" cy="140.39499999999998" filter="url(#SvgjsFilter1231)" fill="rgba(199, 199, 208, 1)"></circle><circle r="5.425" cx="449.495" cy="179.63500000000002" filter="url(#SvgjsFilter1231)" fill="rgba(199, 199, 208, 1)"></circle><circle r="5.66" cx="155.29" cy="303.03000000000003" filter="url(#SvgjsFilter1231)" fill="rgba(199, 199, 208, 1)"></circle><circle r="5.555" cx="14.305" cy="222.555" filter="url(#SvgjsFilter1231)" fill="rgba(199, 199, 208, 1)"></circle><circle r="6.375" cx="541.485" cy="349.845" filter="url(#SvgjsFilter1231)" fill="rgba(199, 199, 208, 1)"></circle><circle r="6.435" cx="344.635" cy="328.605" filter="url(#SvgjsFilter1231)" fill="rgba(199, 199, 208, 1)"></circle><circle r="6.175" cx="425.265" cy="131.985" filter="url(#SvgjsFilter1231)" fill="rgba(199, 199, 208, 1)"></circle><circle r="5.555" cx="470.615" cy="143.82500000000002" filter="url(#SvgjsFilter1231)" fill="rgba(199, 199, 208, 1)"></circle><circle r="5.075" cx="201.695" cy="72.495" filter="url(#SvgjsFilter1231)" fill="rgba(199, 199, 208, 1)"></circle><circle r="5.6" cx="533.21" cy="17.35" filter="url(#SvgjsFilter1231)" fill="rgba(199, 199, 208, 1)"></circle><circle r="4.695" cx="434.945" cy="189.125" filter="url(#SvgjsFilter1231)" fill="rgba(199, 199, 208, 1)"></circle><circle r="3.485" cx="519.235" cy="399.27500000000003" filter="url(#SvgjsFilter1231)" fill="rgba(199, 199, 208, 1)"></circle><circle r="5.99" cx="376.7" cy="104.08" filter="url(#SvgjsFilter1231)" fill="rgba(199, 199, 208, 1)"></circle><circle r="3.42" cx="442.16" cy="24.35" filter="url(#SvgjsFilter1231)" fill="rgba(199, 199, 208, 1)"></circle><circle r="4.825" cx="482.115" cy="120.045" filter="url(#SvgjsFilter1231)" fill="rgba(199, 199, 208, 1)"></circle><circle r="4.65" cx="539.1" cy="47.809999999999995" filter="url(#SvgjsFilter1231)" fill="rgba(199, 199, 208, 1)"></circle><circle r="3.365" cx="272.355" cy="86.85499999999999" filter="url(#SvgjsFilter1231)" fill="rgba(199, 199, 208, 1)"></circle><circle r="4.77" cx="551.1" cy="232.39000000000001" filter="url(#SvgjsFilter1231)" fill="rgba(199, 199, 208, 1)"></circle><circle r="3.54" cx="471.90000000000003" cy="160.95999999999998" filter="url(#SvgjsFilter1231)" fill="rgba(199, 199, 208, 1)"></circle><circle r="3.99" cx="320.92" cy="268.37" filter="url(#SvgjsFilter1231)" fill="rgba(199, 199, 208, 1)"></circle><path d="M512.9 112.2L533.7 104.9 539.3 107.4 540.4 120.9 535.3 124.5 513.6 120.4C513.3 120.5 513.3 120.5 513 120.5 512.5 120.5 512 120.8 511.8 121.7 511.9 122.4 512.2 123 513 123.2L532 126.7 524.2 132.1 515.8 130.7C515.8 130.7 515.5 130.7 515.5 130.7 515 130.8 514.4 131.1 514.2 131.9 514 132.4 514.6 133.2 515.4 133.4L520.9 134.6 515.1 138.5C514.5 138.8 514.3 139.6 514.7 140.4S516.1 141.1 516.8 140.8L522.4 136.8 521.5 142.3C521.3 143.1 521.9 143.8 522.7 144 523.3 144 524 143.7 524.2 142.8L525.7 134.4 533.8 129 530.3 148C530.1 148.8 530.7 149.5 531.2 149.8 532 149.7 532.8 149.4 533 148.5L536.8 126.8 542.2 123.2 554.1 128.9 554.7 135.3 540.5 152.2C540 152.8 540.1 153.6 540.7 154.1S542 154.5 542.5 153.9L555 139 555.8 148.8 550.4 155.2C549.9 155.7 550 156.5 550.6 157.3S551.9 157.7 552.4 157.1L556.1 152.6 556.7 159.7C556.7 160.5 557.6 161 558.4 160.9 559.2 160.9 559.6 160.3 559.6 159.5L559 152.3 563.3 156C563.9 156.7 564.7 156.7 565.2 155.8 565.7 155.2 565.6 154.4 565 154L558.7 148.6 557.9 138.8 572.6 151.5C573.1 152 574.2 151.9 574.7 151.3S575.1 149.9 574.5 149.4L557.6 135 557.1 128.7 568.2 121.1 573.8 123.8 581.1 144.6C581.4 145.4 582.3 145.6 583.1 145.5 583.8 145.2 584 144.4 584 143.6L577.4 125.4 586 129.5 588.8 137.6C589.2 138.3 590 138.5 590.8 138.5 591.3 138.2 591.7 137.3 591.4 136.6L589.7 131.3 596 134.3C596.6 134.5 597.4 134.2 597.9 133.6 598.1 132.8 597.7 132 597.2 131.8L590.8 128.8 596.2 126.8C596.7 126.5 597.2 125.6 596.9 125.1 596.8 124.3 596.3 124.1 595.5 124.2 595.5 124.2 595.2 124.2 595.2 124.2L587.2 127 578.5 122.9 596.7 116.3C597.5 116 598 115.4 597.7 114.6 597.3 113.9 596.8 113.6 596.2 113.7 596 113.7 596 113.7 596 113.7L574.9 121.3 569.3 118.6 568.2 105 573.3 101.6 595.3 105.5C595.8 105.7 596.6 105.1 596.8 104.5 597 103.7 596.4 103 595.6 102.8L576.6 99.2 584.4 93.8 592.9 95.2C593.7 95.4 594.4 95.1 594.4 94.3 594.6 93.5 594 92.7 593.4 92.5L587.7 91.6 593.6 87.7C594.1 87.1 594.3 86.3 593.9 85.5 593.6 85.3 593.1 85 592.6 85.1 592.3 85.1 592.3 85.1 592.1 85.4L586.2 89.4 587.1 83.7C587.3 82.8 586.7 82.4 586.2 82.1 585.9 82.2 585.9 82.2 585.6 82.2 585.1 82.2 584.6 82.5 584.4 83.1L582.9 91.5 575.1 97 578.6 77.9C578.5 77.1 578.2 76.4 577.4 76.4 577.1 76.2 577.1 76.2 576.9 76.2 576.3 76.2 575.8 76.8 575.6 77.4L571.8 99.4 566.7 102.7 554.5 97 554 90.9 568.4 74C568.9 73.4 568.8 72.3 568.2 71.8S566.6 71.4 566.1 72L553.6 86.9 552.9 77.4 558.2 70.8C558.7 70.2 558.6 69.4 558.1 68.9 557.5 68.4 556.7 68.5 556.2 69.1L552.5 73.4 552 66.2C551.9 65.7 551.3 64.9 550.5 65 549.7 65 549 65.9 549 66.4L549.6 73.6 545.3 70C545 69.7 544.7 69.5 544.5 69.5 543.9 69.5 543.7 69.8 543.4 70.1 543 70.7 543 71.5 543.6 72L549.9 77.6 550.7 87.2 536 74.5C535.8 74.2 535.5 74.2 535 74.3 534.7 74.3 534.4 74.3 534.2 74.6 533.7 75.2 533.8 76.2 534.4 76.7L551.1 91.2 551.6 97.3 540.7 104.8 534.8 102.4 527.5 81.3C527.2 80.8 526.6 80.3 526.1 80.4 525.8 80.4 525.8 80.4 525.8 80.6 525 80.7 524.6 81.5 524.9 82.3L531.5 100.5 522.6 96.4 519.8 88.4C519.5 87.8 518.9 87.6 518.4 87.7 518.4 87.7 518.1 87.7 518.1 87.7 517.3 87.8 516.9 88.6 517.2 89.4L519.2 94.8 512.8 91.9C512.6 91.6 512.3 91.6 512 91.7 511.5 91.7 511 92 511 92.3 510.5 93.1 510.9 93.9 511.4 94.4L517.8 97.3 512.6 99.1C511.9 99.4 511.4 100.3 511.7 101.1 512 101.6 512.9 102 513.4 101.7L521.5 98.9 530.1 103 511.9 109.6C511.1 109.9 510.9 110.8 511 111.6 511.3 112.1 512.1 112.5 512.9 112.2ZM543.2 119.1L542.3 108.7 542.2 107.1 543.5 106.2 551.8 100.5 553.3 99.5 554.7 100.2 563.9 104.6 565.3 105.2 565.4 106.8 566.3 117.2 566.4 118.8 565.2 119.7 556.8 125.5 555.5 126.4 553.9 125.7 544.7 121.4 543.3 120.7 543.2 119.1Z" fill="rgba(199, 199, 208, 1)"></path><path d="M318 115.2L323.7 109.1 325.5 114.4C325.7 115 326.4 115.4 327.2 115.4 327.9 115 328.3 114.2 328.2 113.7L325.9 106.6 331.2 101 335.7 115.3C336.1 116.2 336.8 116.7 337.4 116.3 338.3 116.2 338.7 115.4 338.3 114.5L333.4 98.7 338.1 93.5 354 97 355.9 102.9 343.8 115.8C343.7 116 343.7 116.3 343.6 116.5 343.6 116.8 343.7 117.4 343.9 117.7 344.6 118.4 345.4 118.3 345.9 117.6L356.9 105.8 359.1 113.2 353.7 119.3C353.4 119.3 353.4 119.5 353.3 119.8 353.2 120.3 353.3 120.9 353.8 121.3 354.2 121.6 355.1 121.5 355.7 121.1L360.1 116.1 363 125.2C363.2 125.8 363.9 126.2 364.7 126.1 365.4 125.7 365.8 125 365.6 124.4L362.9 115.9 368.4 117.1C369.1 117.3 369.8 116.6 370 116.1 370.1 115.3 369.8 114.4 369 114.2L362 112.7 359.8 105.4 374.3 108.6C375.1 108.8 375.8 108.4 375.9 107.6 376.1 106.8 375.7 106.2 374.9 106L358.8 102.4 356.6 96.2 367.7 84.2 373.7 85.5 378.9 101.7C379 102.5 380 103 380.6 102.6 381.4 102.5 381.6 101.7 381.5 100.9L376.9 86.2 384.4 87.9 386.6 95.2C386.8 95.8 387.7 96.3 388.3 96.1S389.4 95 389.3 94.2L387.5 88.6 396.6 90.6C397.4 90.8 398.1 90.1 398.3 89.3 398.4 88.8 398.1 87.9 397.3 87.7L388.2 85.7 392.2 81.2C392.6 80.7 392.7 79.9 392.1 79.2 391.6 78.8 390.5 78.9 390.1 79.3L385 85 377.5 83.4 387.9 72C388.4 71.3 388.5 70.5 387.9 69.8 387.4 69.4 386.3 69.5 385.9 69.9L374.4 82.7 368.4 81.3 363.4 65.7 368 61 384.1 64.6C384.9 64.8 385.5 64.4 385.7 63.6 385.9 62.8 385.5 61.9 384.7 61.7L370.2 58.5 375.3 52.8 382.3 54.4C383.1 54.5 383.7 54.1 383.9 53.4 384 52.6 383.6 51.9 382.9 51.8L377.4 50.6 383.5 44C383.9 43.5 383.8 42.4 383.4 42 382.7 41.6 381.9 41.4 381.4 42.2L375 48.9 373.1 42.8C372.7 42.1 372 41.7 371.4 41.9 370.8 42 370.4 42.5 370.3 43 370.3 43 370.3 43.2 370.5 43.6L372.8 51.5 367.7 57.2 362.7 41.8C362.6 41 361.9 40.6 361 40.9 360.6 41.1 360.3 41.3 360.2 41.8 360.2 42.1 360.1 42.3 360 42.6L365.6 59.4 361.3 63.9 345.4 60.4 343.4 53.7 354.6 41.4C355.3 40.7 355.2 39.9 354.5 39.5 354 38.8 353.2 38.9 352.5 39.6L342.4 50.7 339.9 43.3 345 37.9C345.3 37.4 345.3 36.6 344.8 36 344.1 35.5 343.3 35.4 342.9 36.1L339 40.1 336.4 32.2C336.3 31.3 335.5 31.2 334.7 31.2 334.4 31.5 334 31.9 333.9 32.4 333.9 32.4 333.8 32.7 333.8 33L336.5 41.5 330 40C329.5 39.9 328.6 40.3 328.4 41.1 328.2 41.8 328.9 42.5 329.4 42.6L337.5 44.4 340 51.8 324.1 48.3C323.3 48.1 322.6 48.8 322.4 49.6S322.7 51 323.4 51.2L340.9 55 342.8 61.2 331.7 73.2 324.9 71.7 319.8 55.3C319.4 54.6 318.7 54.2 317.8 54.3 317.5 54.5 317.1 54.9 317 55.5 317 55.7 316.9 56 317.1 56.3L321.8 71 314.2 69.3 311.8 61.9C311.6 61.4 310.9 60.9 310.1 61 309.4 61.4 309 62.1 309.1 62.7L311.1 68.6 302.8 66.8C302.3 66.7 301.3 67.3 301.2 67.8 301 68.6 301.6 69.5 302.1 69.6L310.5 71.5 306.2 75.7C306.2 76 306.1 76.3 306.1 76.5 306 77 306.1 77.6 306.3 77.9 307 78.4 307.9 78.3 308.5 77.9L313.6 72.2 321.1 73.9 310.7 85.2C310 85.9 310.1 86.7 310.6 87.1 311.2 87.8 312.1 87.7 312.7 87.3L324.3 74.6 331 76.1 336 91.6 331.7 96.4 314.3 92.5C313.5 92.4 312.8 92.8 312.7 93.6 312.5 94.3 312.9 95 313.7 95.1L329.6 98.7 324.2 104.3 316.1 102.5C315.6 102.4 314.7 103 314.5 103.8 314.3 104.6 315 105.3 315.5 105.4L322 106.8 315.9 113.4C315.9 113.7 315.9 113.7 315.8 113.9 315.7 114.4 315.8 115 316 115.3 316.8 115.8 317.6 115.7 318 115.2ZM334.2 76.7L333.7 75 334.8 73.9 343.8 64.1 344.9 63 346.4 63.3 359.2 66.2 360.7 66.5 361.2 68 365.3 80.6 365.7 82.1 364.6 83.5 355.7 93 354.6 94.4 353 94 340.2 91.2 338.7 90.9 338.2 89.1 334.2 76.7Z" fill="rgba(199, 199, 208, 1)"></path><path d="M112.5 118.2L110.7 127.4 106.3 123.8C105.9 123.4 105 123.4 104.4 124 104 124.6 104 125.5 104.7 125.8L110 130.4 108.9 137.6 97.9 128C97.2 127.6 96.3 127.6 95.9 128.1 95.3 128.8 95.4 129.7 96 130L108.3 140.7 106.2 151.6 97.5 142.2 96.7 155 88.2 147.8 91 131.8C91.3 131.7 91.2 131.5 91.1 131.2 90.9 130.7 90.5 130.3 89.9 130.2 89.3 130.1 88.6 130.7 88.3 131.3L85.8 145.8 80.4 140.9 81.6 134C81.8 133.6 81.7 133.4 81.6 133.1 81.5 132.9 81.1 132.5 80.5 132.4 79.9 132.3 79.2 132.9 79.1 133.4L78 138.9 70.8 133C70.3 132.3 69.5 132.6 68.8 133.1 68.4 133.6 68.4 134.4 69.2 135L76.2 141 70.9 142.9C70.1 143.1 69.9 144.1 70.1 144.6 70.3 145.3 71 145.7 71.8 145.4L78.6 143 84 147.9 70.4 152.7C69.6 152.9 69.3 153.6 69.6 154.4 69.8 154.9 70.5 155.4 71.3 155.2L86.4 149.8 94.8 157 82.6 159.9 93 167 82.4 170.7 70.3 160.3C69.5 159.8 68.7 160 68.3 160.5 67.9 160.9 67.9 161.7 68.5 162.4L79.7 171.7 72.9 174.1 67.3 169.6C66.8 168.9 66 168.9 65.4 169.7 65 170.1 65 171 65.8 171.6L69.9 175.2 61.1 178.3C60.3 178.6 60 179.3 60.3 180S61.2 181.1 62 180.8L70.8 177.7 69.8 183.1C69.6 184.1 70.1 184.7 70.7 184.8 71.7 185 72.3 184.5 72.3 183.7L73.8 176.6 80.6 174.2 77.7 188.5C77.7 189.4 78.2 190.1 78.8 190.1 79.8 190.4 80.4 189.8 80.4 189L83.3 173.3 93.9 169.5 90.2 181.6 101.6 176.1 99.5 187 84.4 192.4C83.7 192.7 83.4 193.6 83.6 194.1 83.9 194.8 84.6 195.2 85.3 194.9L99.2 190 97.8 197.3 91 199.7C90.2 200 89.9 200.6 90.2 201.4 90.3 201.9 91.1 202.5 91.9 202.2L97.1 200.3 95.5 209.4C95.3 210.3 95.8 211 96.7 211 97.3 211 98 210.8 98 209.9L99.9 200.8 104.2 204.3C104.7 204.8 105.5 204.7 105.9 204.3 106.3 203.9 106.4 203.3 106.3 203 106.2 202.8 106.1 202.5 105.8 202.4L100.5 197.7 101.6 190.6 112.7 200.2C113.3 200.5 114.2 200.5 114.6 200.1 115 199.7 115.1 199.1 114.9 198.6 114.8 198.3 114.8 198.3 114.5 198.2L102.2 187.5 104.3 176.6 113 186 113.9 173.2 122.3 180.4 119.5 196.4C119.4 197 119.7 197.7 120.6 198 121.2 198 121.9 197.5 122.2 196.8L124.7 182.4 130.1 187.2 128.9 194.2C128.6 194.9 129.1 195.5 130 195.8 130.6 195.8 131.3 195.3 131.6 194.6L132.5 189.2 139.7 195.2C140.2 195.8 141 195.6 141.7 195.1 141.8 194.7 141.9 194.1 141.8 193.9 141.7 193.6 141.6 193.4 141.3 193.2L134.4 187.2 139.6 185.3C140.4 185 140.6 184.1 140.4 183.6L140.4 183.6C140.2 182.8 139.5 182.5 138.7 182.8L132 185.2 126.6 180.3 140.1 175.5C140.9 175.2 141.2 174.6 140.9 173.8S140 172.7 139.2 173L124.2 178.3 115.7 171.2 127.9 168.2 117.5 161.2 128.1 157.4 140.2 167.8C141 168.4 141.8 168.1 142.2 167.7 142.6 167.3 142.6 166.4 142.1 165.8L131.1 156.4 137.6 154.1 143.2 158.6C143.7 159.3 144.6 159.2 145.1 158.5 145.5 158 145.5 157.2 145 156.5L140.6 153 149.4 149.9C150.2 149.6 150.5 148.9 150.3 148.2S149.3 147.1 148.6 147.4L139.8 150.5 140.7 145.1C140.8 144.7 140.7 144.5 140.7 144.2 140.5 143.7 140.1 143.5 139.8 143.4 138.9 143.1 138.2 143.7 138.2 144.5L136.7 151.5 130 153.9 132.8 139.6C132.7 139.4 132.6 139.1 132.5 138.9 132.4 138.4 132 138.2 131.7 138.1 130.8 137.8 130.1 138.3 130.1 139.2L127.2 154.9 116.6 158.7 120.3 146.6 108.9 152 111 141.1 126.1 135.8C126.8 135.5 127.1 134.6 126.9 134.1 126.6 133.3 125.9 133 125.2 133.3L111.6 138.1 112.7 130.9 119.5 128.5C120.3 128.2 120.6 127.5 120.3 126.8S119.4 125.7 118.6 126L113.4 127.8 115 118.8C115.1 118.4 115 118.2 115 117.9 114.9 117.7 114.4 117.3 113.8 117.2 113.3 117.1 112.5 117.4 112.5 118.2ZM116.1 151.5L113.1 161.3 121.6 167.1 111.4 169.5 110.8 179.7 103.6 172.3 94.4 176.7 97.5 166.8 88.9 161.1 98.8 158.7 99.7 148.5 106.6 156 116.1 151.5Z" fill="rgba(199, 199, 208, 1)"></path><path d="M204.3 323.5L209.6 341.4 206.2 347.3 204.4 341.2C204.4 340.5 203.7 340.3 203 340.3 202.6 340.6 202.1 341.3 202.3 341.7L204.6 350.1 201.5 356 198.1 350.2 200.2 341.8C200.2 341.8 200.2 341.5 200.2 341.5 200.2 341.1 199.8 340.6 199.3 340.4 198.6 340.4 198.1 340.6 197.9 341.3L196.4 347.4 193 341.7 197.3 323.6C197.3 323.6 197.5 323.4 197.5 323.4 197.5 322.9 197.1 322.5 196.6 322.2 195.9 322 195.2 322.5 195.2 323.2L191.3 338.9 187 332 188.7 325C188.7 325 188.7 325 188.7 324.7 188.7 324.3 188.5 323.8 188 323.6 187.3 323.6 186.6 323.8 186.4 324.5L185.3 329.2 182.2 324.1C181.9 323.5 181.2 323.5 180.8 323.7 180.1 324 179.8 324.7 180.3 325.4L183.2 330.4 178.8 329.1C178.1 329.1 177.4 329.4 177.4 330.1 177.2 330.8 177.4 331.2 178.1 331.5L185.1 333.2 189.2 340.1 173.3 336.2C172.8 336 172.1 336.5 171.9 337.2 171.9 337.7 172.2 338.3 172.9 338.6L190.9 342.9 194.3 348.7 188.2 347.1C187.5 346.9 187.1 347.4 186.8 348.1 186.6 348.6 187.1 349.3 187.6 349.5L196 351.4 199.6 357.2 192.8 357.3 186.7 351.4C186.2 350.9 185.5 350.9 185 351.4 184.6 351.6 184.6 352.6 185.1 353L189.6 357.4 182.8 357.5 169.5 344.5C169 344 168.3 344 167.9 344.5 167.4 345 167.4 345.7 167.9 346.1L179.5 357.6 171.6 357.7 166.4 352.7C165.9 352.2 165.2 352.3 164.8 352.7 164.3 353.2 164.3 353.9 164.8 354.4L168.1 357.8 162.3 357.9C161.6 357.9 161.1 358.4 161.1 359.1 161.2 359.8 161.6 360.3 162.3 360.2L168.2 360.1 165 363.5C164.5 363.9 164.5 364.6 165 365.1S166.2 365.5 166.6 365.1L171.4 360.1 179.6 359.9 168.4 371.6C167.9 372 167.9 372.7 168.4 373.2 168.9 373.7 169.6 373.6 170.1 373.2L182.9 359.8 189.6 359.7 185.3 364.2C184.8 364.7 184.8 365.4 185.3 365.9 185.8 366.3 186.5 366.3 186.9 365.8L192.9 359.6 199.4 359.5 196.3 365.2 187.9 367.7C187.5 367.9 187 368.6 187.2 369.1 187.5 369.8 188 370 188.7 370L194.7 368.2 191.5 373.9 173.7 379.2C173 379.4 172.7 379.9 172.8 380.6 173 381.3 173.7 381.5 174.2 381.5L190 377 185.9 384.1 179.2 386.1C178.5 386.1 178.3 386.8 178.3 387.5 178.5 387.9 179.2 388.4 179.9 388.1L184.3 386.9 181.6 392.1C181.2 392.5 181.4 393.2 182.1 393.7 182.6 393.9 183.3 393.7 183.5 393.2L186.4 388 187.7 392.7C187.9 393.3 188.7 393.6 189.1 393.3 189.8 393.3 190 392.8 190 392.4 190 392.1 190 392.1 190 391.9L188 385.2 192.1 378.1 196.6 393.6C196.6 394.3 197.3 394.6 198 394.6 198.5 394.3 198.7 393.8 198.7 393.4 198.7 393.1 198.7 393.1 198.7 393.1L193.7 375 196.8 369.4 198.6 375.4C198.8 376.1 199.3 376.3 200 376.3 200.4 376.1 200.9 375.6 200.9 375.1 200.9 374.9 200.9 374.9 200.9 374.7L198.4 366.3 201.5 360.6 204.9 366.2 203 374.6C202.8 375.3 203.2 376 203.7 376.2 204.4 376.2 205.1 376 205.1 375.3L206.6 369.2 210.2 374.7 205.7 393C205.5 393.5 205.9 394.2 206.4 394.4 207.1 394.4 207.8 394.1 208 393.4L211.9 377.7 216 384.6 214.3 391.4C214.1 392.1 214.5 392.8 215.2 392.8 215.7 393 216.4 392.8 216.6 392.1L217.7 387.4 220.8 392.5C221.1 392.9 221.8 393.2 222.5 392.9 222.7 392.7 222.9 392.2 222.9 391.7 222.9 391.7 222.9 391.5 222.9 391.3L219.8 386.2 224.5 387.3C224.9 387.5 225.6 387 225.9 386.5 225.9 386.3 225.9 386.3 225.9 386.3 225.8 385.6 225.4 385.2 224.9 385.2L218.1 383.4 213.8 376.5 229.7 380.4C230.4 380.4 230.9 380.1 231.1 379.4 231.1 379.4 231.1 379.2 231.1 379.2 231.1 378.7 230.8 378.3 230.1 378.1L212.1 373.5 208.7 368 214.8 369.5C215.5 369.5 216.2 369.2 216.2 368.5 216.4 368.5 216.4 368.3 216.4 368.3 216.4 367.8 215.9 367.4 215.4 367.1L207 365.2 203.6 359.4 210.2 359.3 216.3 365.3C216.8 365.7 217.7 365.7 218.2 365.2 218.4 364.7 218.4 364 218.2 363.6L213.4 359.2 220.2 359.1 233.5 371.9C234 372.4 234.7 372.4 235.1 371.9 235.6 371.4 235.6 370.7 235.1 370.3L223.5 359 231.6 358.9 236.6 363.7C237.1 364.2 237.8 364.1 238.2 363.7S238.7 362.5 238.2 362L234.9 358.8 240.7 358.7C241.4 358.7 241.9 358.2 241.9 357.5 241.8 356.8 241.4 356.4 240.7 356.4L234.8 356.5 238 352.9C238.3 352.7 238.5 352.5 238.5 352.2 238.5 352 238.2 351.5 238 351.3 237.5 350.8 236.8 350.9 236.4 351.3L231.6 356.6 223.4 356.7 234.6 344.8C234.8 344.6 235.1 344.4 235.1 344.1 235.1 343.9 234.8 343.4 234.6 343.2 234.1 342.7 233.4 342.8 232.9 343.2L220.1 356.8 213.4 356.9 218 352.4C218.2 352.2 218.2 351.7 218.2 351.5 218.2 351.2 218.2 351 217.9 350.8 217.4 350.3 216.5 350.3 216.3 350.8L210.1 357 203.6 357.1 206.7 351.2 215.1 348.9C215.5 348.7 216 348.2 216 347.8 216 347.5 216 347.5 215.8 347.5 215.7 346.8 215 346.4 214.3 346.6L208.3 348.4 211.5 342.5 229.6 337.5C230 337.2 230.3 336.7 230.2 336.3 230.2 336 230.2 336 230.2 336 230 335.4 229.5 334.9 228.8 335.1L213 339.6 217.1 332.6 223.8 330.6C224.5 330.3 224.7 329.9 224.7 329.4 224.7 329.4 224.7 329.2 224.7 329.2 224.5 328.5 223.8 328.2 223.3 328.2L218.7 329.7 221.6 324.5C221.6 324.3 221.6 324.1 221.6 323.8 221.6 323.6 221.3 323.2 221.1 322.9 220.4 322.7 219.7 322.7 219.5 323.4L216.6 328.6 215.3 324C215.1 323.3 214.3 323.1 213.9 323.1 213.2 323.3 213 324 213 324.7L215 331.4 211.1 338.5 206.6 323C206.4 322.3 205.7 321.8 205.2 322.1 204.5 322.3 204.1 322.8 204.3 323.5Z" fill="rgba(199, 199, 208, 1)"></path><path d="M246.4 249.8L244.2 241.7 249.7 242.9C250.2 243.1 251 242.7 251.3 242 251.3 241.2 250.9 240.5 250.4 240.3L243.2 238.5 241.1 231 255.7 234.7C256.7 234.9 257.4 234.5 257.4 233.7 257.8 233 257.4 232.2 256.4 232.1L240.3 228 238.3 221.3 249.6 209.6 255.7 211 260.3 228C260.5 228.2 260.7 228.4 260.9 228.6 261.1 228.8 261.7 229 262 229 263 228.7 263.3 228 262.9 227.2L258.7 211.7 266.1 213.6 268.5 221.5C268.3 221.7 268.5 221.9 268.7 222 269.1 222.4 269.7 222.6 270.2 222.4 270.8 222.2 271.1 221.4 271.1 220.7L269.1 214.3 278.4 216.6C279 216.8 279.7 216.4 280.1 215.6 280.1 214.9 279.7 214.1 279.1 213.9L270.4 211.8 274.3 207.8C274.8 207.2 274.6 206.3 274.3 205.9 273.7 205.4 272.7 205.2 272.2 205.8L267.2 210.9 259.8 209 270.2 198.3C270.7 197.7 270.7 196.9 270.1 196.4 269.6 195.8 268.8 195.8 268.2 196.4L256.8 208.3 250.3 206.9 245.9 191.1 250.2 186.7 266.6 190.8C267.4 191.1 268.3 190.6 268.3 189.8 268.7 189 268.1 188.5 267.3 188.1L252.4 184.4 257.7 178.9 265.1 180.8C265.7 181 266.6 180.4 266.8 179.8S266.4 178.3 265.6 178L260 176.6 266.4 169.8C267 169.3 266.8 168.3 266.2 167.8 265.8 167.4 264.9 167.2 264.3 167.8L257.9 174.5 256.1 168.7C255.9 168.1 255.3 167.6 254.3 167.8 253.8 168 253.2 168.9 253.4 169.5L255.6 176.8 250.3 182.4 246 167.6C245.6 166.8 245.1 166.3 244.1 166.5 243.6 166.7 243 167.6 243.2 168.2L248 184.7 243.8 189.1 227.9 185.2 226.2 178.9 237.7 167C238.3 166.4 238.3 165.6 237.7 165.1 237.1 164.5 236.2 164.4 235.6 164.9L225.2 175.7 223 168.4 228 163.2C228.6 162.6 228.6 161.8 228 161.3 227.4 160.7 226.7 160.8 226.1 161.3L222.2 165.4 219.8 156.7C219.6 156.2 218.7 155.6 218.1 155.8 217.4 156.2 216.8 156.8 217.2 157.5L219.6 166.5 213.4 165C212.6 165 211.9 165.4 211.7 165.9 211.5 166.5 211.7 167.1 212.1 167.4 212.1 167.4 212.3 167.6 212.7 167.6L220.6 169.7 222.8 177 207.1 173.4C206.3 173 205.6 173.4 205.4 174.3 205.4 174.7 205.4 175.1 205.8 175.5 206 175.6 206.2 175.8 206.4 176L223.6 180 225.2 186 214 197.8 207.1 196 202.5 180C202.3 179.1 201.5 178.7 200.8 179.1 200 179.1 199.7 179.9 199.9 180.8L204.1 195.3 196.5 193.5 194.5 186.4C194.3 185.8 193.6 185.5 192.8 185.5 192.1 185.9 191.5 186.5 191.9 187.2L193.3 192.7 185.2 190.7C184.4 190.4 183.8 190.9 183.5 191.7 183.5 192.1 183.7 192.6 184.1 193 184.1 193 184.3 193.2 184.5 193.4L193.2 195.5 188.5 200.3C188.2 200.7 188 201.6 188.6 202.2 189.1 202.7 190.1 202.5 190.5 202.1L196.2 196.2 203.8 197.9 192.5 209.6C191.9 210.2 192.1 211.2 192.7 211.7S194 212.3 194.6 211.7L207 198.8 213.2 200.4 217.7 216.2 212.9 221.2 196.2 216.9C195.4 216.9 194.7 217.3 194.3 218.1 194.3 218.5 194.5 219 194.9 219.4 195.1 219.6 195.3 219.8 195.7 219.8L210.6 223.5 205.3 229 197.7 227.3C197.1 227.1 196.4 227.5 196 228.3 196 229 196.4 229.8 197 229.9L203.1 231.3 197.1 237.5C196.8 237.9 196.8 239 197.2 239.4 197.7 239.9 198.9 239.9 199.2 239.5L205.2 233.4 206.6 239.2C206.8 239.4 207 239.6 207.2 239.7 207.5 240.1 208.1 240.3 208.5 240.3 209.2 239.9 209.6 239.1 209.6 238.4L207.4 231.1 212.8 225.5 217 240.3C217.2 241.3 217.9 241.6 218.5 241.4 219.4 241.2 219.8 240.5 219.8 239.7L215 223.2 219.8 218.2 235.7 222.1 237.5 228.3 225.1 241.1C224.5 241.7 224.6 242.4 225.1 243 225.7 243.6 226.5 243.5 227 243L238.3 231.3 240.3 238.8 234.6 244.7C234.2 245.1 234.2 246.2 234.8 246.8 235.4 247.3 236.3 247.1 236.7 246.8L241.3 242 243.8 250.6C243.9 250.8 243.9 250.8 244.1 251 244.5 251.3 245.1 251.5 245.5 251.5 246.2 251.1 246.6 250.4 246.4 249.8ZM222 215.9L220.3 215.4 219.9 213.9 216.3 201.1 215.9 199.6 217 198.5 226.1 189.1 227.2 187.9 228.7 188.2 241.6 191.4 243.1 191.8 243.7 193.4 247.1 206 247.7 207.7 246.6 208.9 237.5 218.3 236.4 219.4 234.7 218.9 222 215.9Z" fill="rgba(199, 199, 208, 1)"></path><path d="M423.1 319L428.6 312.7 430.6 318C430.8 318.6 431.5 319 432.3 318.8 433 318.4 433.4 317.7 433.2 317.1L430.7 310.1 435.8 304.3 440.8 318.5C441.2 319.4 441.9 319.8 442.5 319.4 443.4 319.2 443.8 318.5 443.4 317.6L437.9 302 442.4 296.6 458.4 299.5 460.6 305.3 448.9 318.6C448.9 318.9 448.8 319.2 448.8 319.4 448.7 319.7 448.9 320.3 449.1 320.6 449.8 321.2 450.6 321.1 451 320.4L461.7 308.2 464.1 315.5 458.9 321.8C458.6 321.8 458.6 322 458.5 322.3 458.4 322.8 458.6 323.4 459.1 323.8 459.6 324.1 460.4 324 461 323.6L465.2 318.4 468.5 327.4C468.6 327.9 469.4 328.3 470.2 328.2 470.8 327.8 471.2 327.1 471.1 326.5L468 318.1 473.5 319.1C474.3 319.2 475 318.5 475.1 318 475.2 317.2 474.8 316.3 474 316.2L466.9 314.9 464.5 307.7 479.2 310.4C480 310.5 480.6 310.1 480.7 309.3 480.9 308.5 480.4 307.9 479.6 307.7L463.4 304.7 461 298.6 471.7 286.2 477.7 287.3 483.4 303.3C483.6 304.1 484.6 304.6 485.2 304.1 486 304 486.2 303.2 486 302.4L480.8 287.9 488.5 289.3 490.9 296.5C491.1 297.1 492.1 297.5 492.7 297.4S493.7 296.2 493.6 295.4L491.6 289.9 500.8 291.5C501.6 291.7 502.2 291 502.4 290.2 502.5 289.7 502.1 288.8 501.3 288.7L492.1 287 496 282.3C496.3 281.8 496.5 281 495.8 280.3 495.3 280 494.2 280 493.9 280.5L489 286.4 481.4 285 491.4 273.3C491.8 272.5 491.9 271.8 491.3 271.1 490.8 270.7 489.7 270.8 489.3 271.3L478.2 284.4 472.2 283.3 466.6 267.9 471 263 487.3 266C488.1 266.2 488.7 265.7 488.9 265 489 264.2 488.6 263.3 487.8 263.1L473.1 260.4 478 254.6 485.1 255.9C485.9 256 486.5 255.6 486.7 254.8 486.8 254 486.4 253.4 485.6 253.2L480.1 252.2 485.9 245.4C486.3 245 486.2 243.9 485.7 243.5 485 243.1 484.2 243 483.8 243.7L477.6 250.7 475.5 244.6C475.1 244 474.3 243.6 473.8 243.8 473.2 243.9 472.8 244.4 472.7 244.9 472.7 244.9 472.7 245.2 472.9 245.5L475.5 253.3 470.7 259.2 465 244.1C464.9 243.2 464.2 242.8 463.3 243.2 463 243.4 462.7 243.6 462.6 244.1 462.5 244.4 462.5 244.7 462.4 244.9L468.6 261.5 464.5 266.2 448.5 263.2 446.2 256.6 456.9 243.9C457.6 243.2 457.5 242.4 456.7 242 456.3 241.4 455.5 241.5 454.8 242.2L445.1 253.7 442.4 246.4 447.2 240.8C447.6 240.3 447.4 239.5 447 238.8 446.3 238.4 445.5 238.3 445.1 239L441.3 243.2 438.4 235.4C438.3 234.5 437.5 234.4 436.7 234.5 436.4 234.7 436 235.2 435.9 235.7 435.9 235.7 435.9 236 435.8 236.2L438.9 244.7 432.3 243.5C431.8 243.4 430.9 243.8 430.8 244.5 430.6 245.3 431.3 246 431.9 246.1L440 247.6 442.7 254.9 426.7 251.9C425.9 251.8 425.3 252.5 425.1 253.3S425.4 254.7 426.2 254.8L443.8 258 445.9 264.1 435.2 276.5 428.4 275.3 422.7 259.1C422.3 258.4 421.5 258 420.7 258.1 420.4 258.4 420 258.8 419.9 259.4 419.9 259.6 419.8 259.9 420.1 260.2L425.2 274.7 417.6 273.3 414.9 266C414.7 265.5 414 265.1 413.2 265.2 412.6 265.6 412.1 266.3 412.3 266.9L414.5 272.7 406.1 271.2C405.6 271.1 404.6 271.7 404.6 272.3 404.4 273 405 274 405.6 274.1L414 275.6 409.9 280C409.9 280.3 409.8 280.5 409.8 280.8 409.7 281.3 409.8 281.9 410 282.2 410.8 282.6 411.6 282.5 412.2 282.1L417.1 276.2 424.7 277.6 414.7 289.3C414 290 414.2 290.8 414.6 291.2 415.3 291.9 416.2 291.7 416.8 291.3L427.9 278.2 434.7 279.4 440.3 294.8 436.1 299.7 418.5 296.5C417.7 296.4 417.1 296.8 417 297.6 416.8 298.4 417.3 299 418.1 299.1L434.1 302.1 428.9 307.9 420.8 306.4C420.3 306.3 419.3 307 419.2 307.8 419 308.5 419.7 309.2 420.3 309.3L426.8 310.5 421 317.3C420.9 317.6 420.9 317.6 420.9 317.8 420.8 318.3 420.9 318.9 421.1 319.2 421.9 319.6 422.7 319.5 423.1 319ZM437.8 280L437.3 278.3 438.4 277.1 447 267 448 265.9 449.6 266.2 462.4 268.5 464 268.8 464.6 270.3 469.1 282.7 469.6 284.2 468.5 285.6 459.9 295.4 458.9 296.9 457.3 296.6 444.4 294.2 442.9 293.9 442.4 292.2 437.8 280Z" fill="rgba(199, 199, 208, 1)"></path><path d="M420.3 24.3L433.5 25.1 436.7 28.8 432.2 28.6C431.7 28.4 431.4 28.8 431.2 29.3 431.3 29.7 431.6 30.1 432 30.1L438.2 30.6 441.4 34.1 436.7 35 431.5 31.5C431.5 31.5 431.4 31.4 431.4 31.4 431.1 31.3 430.6 31.5 430.4 31.8 430.2 32.3 430.3 32.6 430.7 33L434.4 35.5 429.7 36.3 418.6 29C418.6 29 418.5 28.8 418.5 28.8 418.2 28.7 417.8 28.9 417.5 29.2 417.2 29.6 417.4 30.2 417.8 30.4L427.4 36.8 421.7 38 417.4 35.1C417.4 35.1 417.4 35.1 417.3 35.1 417 35 416.6 35 416.3 35.3 416.2 35.8 416.2 36.3 416.6 36.6L419.5 38.5 415.3 39.3C414.8 39.3 414.6 39.8 414.7 40.2 414.7 40.7 415.1 41 415.7 40.9L419.8 40.2 417.8 42.8C417.6 43.3 417.6 43.8 418.1 44 418.5 44.3 418.9 44.3 419.2 43.9L422.1 39.6 427.7 38.5 421.3 48.2C421 48.5 421.1 49.1 421.6 49.4 421.9 49.5 422.4 49.5 422.7 49.1L430 38 434.7 37.2 432.2 40.9C431.9 41.3 432.1 41.7 432.5 42 432.8 42.3 433.4 42.2 433.6 41.9L437 36.7 441.7 35.7 440.2 40.3 434.7 43C434.2 43.2 434.1 43.6 434.3 44.1 434.3 44.4 435 44.6 435.4 44.4L439.4 42.5 437.9 47 425.9 52.8C425.4 53 425.3 53.5 425.5 53.9 425.7 54.3 426.2 54.5 426.6 54.3L437.1 49.2 435.3 54.6 430.6 56.9C430.2 57.1 430 57.6 430.2 58 430.5 58.4 430.9 58.6 431.4 58.4L434.5 57 433.1 60.9C433 61.4 433.2 61.8 433.6 62 434.1 62.1 434.5 61.9 434.7 61.5L436.1 57.5 437.5 60.5C437.7 60.9 438.2 61.1 438.6 60.9S439.2 60.2 439 59.7L436.8 55.3 438.7 49.8 443.8 60.1C444 60.6 444.5 60.7 444.9 60.5 445.3 60.3 445.5 59.8 445.3 59.4L439.4 47.6 441 43 443 47C443.2 47.4 443.7 47.6 444.1 47.4 444.5 47.2 444.7 46.7 444.5 46.3L441.7 40.8 443.3 36.4 446.3 39.9 445.9 46.1C446 46.5 446.3 46.9 446.7 46.9 447.2 46.9 447.5 46.6 447.7 46.2L448 41.7 451 45.2 450.2 58.5C450.2 59 450.4 59.2 450.9 59.4 451.4 59.4 451.7 59 451.9 58.7L452.7 47 456.4 51.4 456.1 56.4C456 56.9 456.4 57.2 456.9 57.4 457.2 57.3 457.7 57 457.7 56.4L458 53.2 460.8 56.3C461 56.7 461.5 56.7 462 56.3 462.3 56.1 462.3 55.5 462 55.3L459.2 52 462.6 52.3C463.2 52.3 463.5 51.9 463.4 51.5 463.6 51.1 463.3 50.8 463 50.7 462.9 50.6 462.9 50.6 462.7 50.6L457.7 50.3 453.9 45.8 465.5 46.6C466 46.8 466.3 46.3 466.4 45.9 466.4 45.5 466.1 45.2 465.8 45.1 465.6 45.1 465.6 45.1 465.6 45.1L452.3 44 449.2 40.5 453.7 40.8C454.2 40.8 454.5 40.6 454.7 40.1 454.6 39.7 454.4 39.3 454.1 39.2 453.9 39.1 453.9 39.1 453.8 39.1L447.6 38.7 444.5 35.2 449.1 34.3 454.3 37.7C454.7 38 455.3 37.8 455.5 37.6 455.7 37.1 455.7 36.6 455.2 36.4L451.5 33.9 456.1 32.8 467.3 40.3C467.5 40.6 468.1 40.4 468.4 40.2 468.5 39.7 468.5 39.2 468.1 38.9L458.5 32.4 464.2 31.3 468.3 34.2C468.7 34.5 469.3 34.3 469.5 33.9 469.7 33.6 469.7 33.1 469.3 32.8L466.4 30.9 470.6 30C471 30 471.3 29.6 471.3 29 471.2 28.8 470.9 28.5 470.6 28.4 470.6 28.4 470.5 28.4 470.3 28.3L466.1 29.2 468 26.3C468.3 26.1 468.1 25.5 467.8 25.2 467.7 25.2 467.7 25.2 467.7 25.2 467.2 25 466.8 25.2 466.7 25.5L463.9 29.7 458.2 30.9 464.7 21.1C464.8 20.7 464.8 20.3 464.3 20 464.3 20 464.2 19.9 464.2 19.9 463.9 19.8 463.5 19.9 463.2 20.3L455.7 31.3 451.2 32.2 453.7 28.5C453.9 28 453.9 27.5 453.4 27.3 453.4 27.2 453.3 27.1 453.3 27.1 453 27 452.5 27.2 452.3 27.5L448.9 32.7 444.2 33.5 445.7 29.1 451.2 26.4C451.7 26.2 451.9 25.6 451.7 25.2 451.4 24.9 450.9 24.7 450.6 24.8L446.5 26.9 448 22.3 459.9 16.5C460.3 16.3 460.5 15.8 460.3 15.4 460.1 15 459.6 14.8 459.2 15L448.8 20.1 450.7 14.6 455.1 12.4C455.5 12.2 455.7 11.7 455.5 11.3S454.8 10.7 454.4 10.9L451.4 12.4 452.8 8.5C452.9 8 452.7 7.6 452.3 7.4 451.8 7.2 451.4 7.4 451.2 7.9L449.9 11.9 448.2 8.8C448.1 8.6 448 8.4 447.9 8.4 447.7 8.3 447.3 8.4 447.1 8.5 446.7 8.7 446.5 9.1 446.8 9.6L449.1 14.1 447.2 19.6 442 9.2C441.9 9 441.8 8.7 441.6 8.7 441.4 8.6 441.1 8.7 440.9 8.8 440.4 9 440.3 9.5 440.5 9.9L446.5 21.8 444.9 26.4 443 22.2C442.9 22 442.6 21.9 442.4 21.8 442.2 21.8 442.1 21.7 441.9 21.8 441.5 22 441.2 22.7 441.5 22.9L444.2 28.6 442.6 33 439.5 29.4 440 23.3C439.9 22.9 439.7 22.5 439.4 22.4 439.2 22.3 439.2 22.3 439.2 22.5 438.7 22.3 438.2 22.7 438.2 23.2L437.9 27.7 434.7 24.1 435.8 10.8C435.7 10.4 435.5 10.1 435.2 10 435 10 435 10 435 10 434.5 10 434 10.2 434 10.7L433.2 22.4 429.5 17.9 429.8 12.9C429.8 12.4 429.5 12.1 429.2 12 429.2 12 429 12 429 12 428.5 12 428.2 12.4 428.1 12.7L427.9 16.2 425.2 13C425 12.9 424.9 12.8 424.7 12.8 424.5 12.7 424.2 12.8 424 12.9 423.6 13.3 423.5 13.8 423.9 14.1L426.7 17.3 423.3 17.1C422.7 17.1 422.4 17.5 422.3 17.8 422.3 18.3 422.7 18.6 423.2 18.8L428.2 19.1 432 23.4 420.5 22.6C419.9 22.6 419.5 23 419.5 23.4 419.5 23.9 419.7 24.3 420.3 24.3Z" fill="rgba(199, 199, 208, 1)"></path><path d="M571.2 254.6L569.3 260.5 566.4 257.5C566.1 257.2 565.4 257.1 564.9 257.4 564.6 257.9 564.5 258.6 564.8 258.9L568.6 263 566.8 268.5 559.2 260.2C558.6 259.7 558 259.6 557.7 260.1 557.2 260.5 557.1 261.1 557.6 261.6L566.1 270.7 564.6 275.8 552.7 278.5 549.5 275.2 553.5 262.5C553.5 262.3 553.5 262.1 553.4 261.9 553.4 261.7 553.1 261.4 552.8 261.2 552.2 261 551.6 261.3 551.6 261.9L547.9 273.5 544 269.2 545.7 263.3C545.9 263.2 545.9 263.1 545.8 262.9 545.7 262.5 545.5 262.1 545 262 544.6 261.9 544 262.2 543.7 262.7L542.4 267.5 537.5 262.3C537.2 262 536.6 261.9 536 262.2 535.7 262.7 535.7 263.3 536 263.7L540.6 268.6 536.5 269.5C535.9 269.7 535.6 270.3 535.7 270.7 535.9 271.3 536.4 271.8 537 271.7L542.2 270.5 546.1 274.7 535.2 277.2C534.6 277.3 534.3 277.8 534.4 278.4 534.6 279 535 279.3 535.6 279.2L547.7 276.4 551.2 279.9 547.5 291.6 543 292.6 534.3 283.4C534 282.8 533.2 282.8 532.9 283.3 532.3 283.6 532.5 284.2 532.8 284.7L540.7 293.2 535 294.5 531.2 290.2C530.9 289.9 530.1 289.9 529.7 290.2S529.4 291.3 529.7 291.8L532.7 295 525.9 296.6C525.3 296.7 525 297.4 525.2 298 525.3 298.4 525.8 298.9 526.4 298.7L533.2 297.2 531.9 301.5C531.8 302 532 302.6 532.6 302.8 533.1 302.9 533.8 302.6 533.9 302.1L535.5 296.6 541.2 295.3 537.8 306.4C537.7 307 537.8 307.6 538.5 307.8 538.9 307.9 539.7 307.6 539.8 307.1L543.5 294.8 548 293.8 556.4 302.7 554.8 307.4 542.7 310.1C542.2 310.3 541.9 310.8 542 311.3 542.1 311.9 542.6 312.4 543.2 312.3L554.1 309.8 552.5 315.3 547.3 316.5C546.7 316.6 546.4 317.1 546.5 317.7 546.7 318.3 547.1 318.6 547.7 318.4L551.8 317.5 549.8 323.9C549.7 324.4 550.1 325.1 550.5 325.2 551.1 325.3 551.7 325.1 551.8 324.5L553.9 317.8 557.2 321.4C557.7 321.7 558.3 321.8 558.7 321.5 559 321.2 559.1 320.7 559 320.4 559 320.4 559 320.2 558.8 320L554.6 315.4 556.2 309.9 564.6 318.7C564.9 319.2 565.6 319.3 566.1 318.7 566.2 318.5 566.4 318.3 566.3 317.9 566.2 317.7 566.2 317.5 566.1 317.3L557 307.7 558.4 303.3 570.3 300.5 573.9 304.4 570.2 316.4C570 317 570.3 317.6 570.9 317.6 571.4 317.9 571.9 317.6 572.2 316.9L575.5 306.1 579.5 310.3 577.9 315.6C577.8 316.1 578.1 316.6 578.6 316.9 579.2 317 579.8 316.8 579.8 316.2L581.2 312.2 585.5 316.7C585.8 317.3 586.4 317.1 587 316.8 587.1 316.6 587.2 316.1 587.1 315.8 587.1 315.8 587.1 315.6 587 315.4L582.4 310.5 587.3 309.4C587.7 309.3 588.2 308.7 588 308.2 587.9 307.6 587.2 307.3 586.8 307.4L580.8 308.8 576.8 304.6 588.6 301.9C589.2 301.7 589.5 301 589.4 300.5S588.7 299.6 588.2 299.7L575.1 302.7 571.8 299.2 575.5 287.4 580.6 286.3 589.3 295.8C589.8 296.1 590.4 296.1 590.9 295.8 591.1 295.5 591.2 295.1 591.1 294.7 591.1 294.5 591 294.3 590.8 294.2L582.9 285.7 588.5 284.4 592.6 288.6C592.9 289 593.5 289 594 288.7 594.3 288.2 594.4 287.6 594.1 287.3L590.9 283.9 597.1 282.5C597.5 282.4 598 281.7 597.9 281.3 597.7 280.7 597 280.2 596.6 280.3L590.4 281.8 591.9 277.5C591.8 277.3 591.8 277.1 591.7 276.9 591.7 276.5 591.4 276.2 591.1 276 590.5 276 590 276.3 589.7 276.8L588.1 282.3 582.4 283.6 585.8 272.5C586.1 271.9 585.7 271.3 585.3 271.2 584.6 271 584.1 271.3 583.8 271.8L580.1 284.1 575 285.3 566.6 276.4 568 271.7 581 268.7C581.6 268.6 581.9 268.1 581.8 267.5 581.7 266.9 581.2 266.6 580.6 266.8L568.7 269.5 570.5 264 576.5 262.6C576.9 262.5 577.4 261.8 577.2 261.2 577.1 260.6 576.4 260.3 576.1 260.4L571.2 261.5 573.2 255.1C573.1 254.9 573.1 254.9 573.1 254.7 573 254.4 572.7 254 572.5 253.9 571.9 253.8 571.3 254.1 571.2 254.6ZM572.7 285.8L573.5 286.9 573.1 288 570.2 297.5 569.8 298.6 568.7 298.9 559.1 301 557.9 301.3 557.1 300.5 550.3 293.2 549.5 292.4 549.8 291.1 552.8 281.8 553.2 280.5 554.3 280.2 563.9 278 565 277.7 565.9 278.8 572.7 285.8Z" fill="rgba(199, 199, 208, 1)"></path><path d="M382.9 141.5L387.8 132.1 391.5 131 389.9 134.2C389.6 134.5 389.8 134.9 390.1 135.1 390.4 135.2 390.8 135.1 390.9 134.8L393.3 130.5 396.9 129.3 396 133 391.8 135.6C391.8 135.6 391.7 135.7 391.7 135.7 391.5 135.9 391.5 136.3 391.6 136.6 391.9 136.9 392.2 136.9 392.6 136.7L395.6 134.8 394.7 138.6 385.8 144.3C385.8 144.3 385.6 144.3 385.6 144.3 385.4 144.5 385.4 144.8 385.6 145.1 385.8 145.5 386.2 145.6 386.5 145.3L394.3 140.4 393.4 144.9 389.9 147.1C389.9 147.1 389.9 147.1 389.8 147.2 389.6 147.4 389.5 147.7 389.6 148 389.9 148.3 390.3 148.4 390.7 148.2L393 146.7 392.3 150.1C392.1 150.4 392.4 150.7 392.7 150.8 393 151 393.4 150.8 393.5 150.3L394.3 147.1 395.6 149.4C395.9 149.6 396.3 149.8 396.6 149.5 396.9 149.3 397 149 396.8 148.7L394.6 145.2 395.7 140.7 400.7 148.6C400.8 148.9 401.3 149 401.6 148.8 401.8 148.6 402 148.2 401.8 147.8L396.1 138.9 397 135.2 398.9 138.2C399.1 138.6 399.5 138.6 399.8 138.4 400.1 138.3 400.2 137.8 400.1 137.5L397.4 133.4 398.2 129.6 401 132.2 401.2 137.1C401.2 137.5 401.5 137.7 401.9 137.7 402.2 137.8 402.5 137.4 402.5 137L402.4 133.5 405.2 136.1 405.5 146.7C405.5 147.1 405.8 147.4 406.2 147.4 406.6 147.3 406.9 147.1 406.8 146.7L406.6 137.3 409.9 140.4 410.1 144.6C410.1 145 410.4 145.2 410.7 145.2 411.1 145.2 411.4 144.9 411.4 144.5L411.4 141.8 413.8 144.1C414.1 144.3 414.5 144.3 414.8 144 415 143.7 415 143.3 414.7 143.1L412.3 140.8 414.9 140.7C415.3 140.7 415.6 140.4 415.6 140S415.2 139.4 414.9 139.4L410.9 139.5 407.5 136.4 416.7 136C417.1 136 417.4 135.7 417.4 135.3 417.3 135 417 134.7 416.7 134.7L406.1 135.1 403.3 132.5 406.9 132.3C407.2 132.3 407.5 132 407.5 131.7 407.5 131.3 407.2 131 406.8 131L401.9 131.2 399.2 128.7 402.7 127.6 407.1 129.9C407.4 130 407.9 129.8 408 129.6 408.2 129.2 408.1 128.9 407.8 128.6L404.6 127 408.1 125.9 417.6 130.8C417.9 131 418.2 130.9 418.5 130.6 418.7 130.2 418.5 129.8 418.3 129.6L410 125.2 414.5 123.9 418 125.8C418.3 126.1 418.7 125.9 419 125.6 419 125.3 418.9 124.8 418.6 124.6L416.2 123.4 419.4 122.3C419.8 122.3 420 121.9 419.8 121.5 419.7 121.2 419.4 121 419.1 121.1L415.8 122.1 417.1 119.7C417.3 119.3 417.1 118.9 416.8 118.8 416.5 118.6 416.3 118.7 416.1 118.9 416 119 416 119 415.9 119.1L414 122.6 409.6 123.9 413.9 115.7C414.1 115.5 413.9 115.1 413.7 114.8 413.4 114.7 413.1 114.8 412.9 115 412.8 115.1 412.8 115.1 412.8 115.1L407.7 124.6 404.2 125.6 405.8 122.5C406 122.1 405.9 121.8 405.6 121.5 405.3 121.5 404.9 121.5 404.8 121.7 404.7 121.8 404.7 121.8 404.6 121.9L402.3 126.3 398.7 127.4 399.6 123.7 403.7 121C404.1 120.8 404.1 120.4 404 120.1 403.7 119.8 403.4 119.6 403.1 119.9L400 121.8 400.8 118.1 409.9 112.4C410.2 112.3 410.2 111.8 410.1 111.6 409.8 111.3 409.5 111.1 409.1 111.3L401.3 116.2 402.3 111.8 405.7 109.6C406.1 109.4 406.2 109 405.9 108.7 405.8 108.4 405.4 108.2 405 108.4L402.7 109.9 403.4 106.6C403.5 106.3 403.3 106 402.9 105.8 402.7 105.8 402.5 105.9 402.3 106.1 402.3 106.1 402.2 106.2 402.1 106.3L401.4 109.6 399.9 107.3C399.8 107 399.3 107 399 107.1 398.9 107.2 398.9 107.2 398.9 107.2 398.7 107.5 398.7 107.8 398.9 108L401 111.4 400 116 395 108.1C394.7 107.8 394.4 107.7 394 107.9 394 107.9 394 108 394 108 393.8 108.2 393.7 108.5 393.9 108.9L399.5 117.9 398.7 121.5 396.8 118.5C396.5 118.2 396.1 118 395.9 118.3 395.8 118.2 395.7 118.3 395.7 118.3 395.5 118.5 395.5 118.9 395.6 119.2L398.3 123.3 397.4 127 394.7 124.5 394.5 119.6C394.5 119.2 394.1 118.9 393.7 118.9 393.4 119 393.2 119.3 393.1 119.6L393.3 123.2 390.5 120.6 390.1 110C390.1 109.7 389.8 109.4 389.4 109.4 389 109.4 388.7 109.7 388.8 110.1L389.1 119.3 385.7 116.2 385.5 112.2C385.5 111.8 385.2 111.6 384.8 111.6S384.2 111.9 384.2 112.2L384.3 114.9 381.9 112.6C381.6 112.3 381.2 112.4 380.9 112.7 380.7 113 380.7 113.3 381 113.6L383.4 115.9 380.7 116.1C380.5 116.1 380.3 116.1 380.2 116.2 380.1 116.3 380 116.6 380 116.7 380.1 117.1 380.4 117.4 380.7 117.4L384.8 117.1 388.2 120.3 378.9 120.8C378.7 120.8 378.5 120.8 378.4 120.9 378.3 121 378.2 121.3 378.2 121.4 378.3 121.8 378.5 122.1 378.9 122.1L389.6 121.6 392.4 124.2 388.7 124.2C388.5 124.3 388.4 124.5 388.3 124.6 388.2 124.6 388.1 124.7 388.1 124.9 388.1 125.3 388.5 125.7 388.8 125.6L393.8 125.5 396.5 128 392.9 129.2 388.5 126.8C388.3 126.7 387.9 126.7 387.7 126.9 387.6 127 387.6 127 387.7 127.1 387.4 127.4 387.5 127.9 387.9 128.1L391.1 129.7 387.5 130.9 378 125.8C377.7 125.7 377.5 125.8 377.3 126 377.2 126.1 377.2 126.1 377.2 126.1 377 126.5 377 126.9 377.4 127L385.7 131.4 381.2 132.7 377.7 130.9C377.3 130.7 377 130.8 376.8 131 376.8 131 376.7 131.1 376.7 131.1 376.5 131.5 376.7 131.9 376.9 132.1L379.4 133.3 376.2 134.3C376.1 134.4 376 134.4 375.9 134.5 375.8 134.6 375.7 134.9 375.7 135.1 375.9 135.5 376.2 135.8 376.6 135.6L379.9 134.6 378.5 137C378.4 137.4 378.6 137.7 378.8 137.9 379.2 138.1 379.5 137.9 379.8 137.6L381.6 134 386 132.7 381.7 140.8C381.5 141.2 381.6 141.7 381.9 141.8 382.3 141.9 382.7 141.9 382.9 141.5Z" fill="rgba(199, 199, 208, 1)"></path><path d="M40.7 359.9L30.5 350.5 30.2 338.2 41 344 44.9 357.3C44.9 357.3 45 357.4 45 357.4 45.2 357.7 45.7 357.8 46 357.8 46.5 357.6 46.8 357.1 46.5 356.7L43.1 345.1 48.3 347.9 49.9 353C49.9 353 50 353.1 50 353.1 50.2 353.4 50.7 353.5 51 353.5 51.5 353.4 51.8 352.8 51.5 352.4L50.5 348.9 54.4 351C54.7 351.2 55.4 351 55.6 350.7 55.9 350.3 55.5 349.7 55.2 349.5L51.4 347.4 54.9 346.4C55.4 346.3 55.6 345.7 55.4 345.3 55.2 344.8 54.7 344.5 54.3 344.8L49.2 346.4 44.1 343.5 55.6 340C56.2 339.9 56.4 339.4 56.1 338.9 56 338.4 55.5 338.2 55 338.5L41.8 342.4 30.9 336.5 41.5 329.9 55.1 333.1C55.5 333.2 56 333 56.1 332.5 56.2 332.1 55.9 331.6 55.5 331.5L43.5 328.7 48.6 325.6 53.7 326.7C54.1 326.9 54.6 326.6 54.7 326.1 54.8 325.7 54.5 325.3 54.1 325.1L50.6 324.3 54.6 321.9C55.1 321.8 55.1 321.2 54.9 320.7 54.6 320.3 54.1 320.2 53.7 320.5L50 322.7 50.8 319.3C50.9 318.8 50.7 318.4 50.2 318.3S49.3 318.5 49.2 318.9L48 324 42.9 327.1 45.7 315.2C45.8 314.7 45.6 314.3 45.1 314.2 44.7 314.1 44.2 314.4 44.1 314.8L41 328.4 30.5 334.9 30.1 322.5 39.3 312.7C39.6 312.3 39.5 311.8 39.3 311.4 38.9 311 38.3 311.2 37.9 311.4L29.7 320.3 29.5 314.3 33.2 310.4C33.5 310 33.4 309.5 33.1 309.1 32.7 308.7 32.2 308.9 31.9 309L29.5 311.7 29.3 307.3C29.3 307 28.9 306.4 28.4 306.5 27.9 306.6 27.5 306.9 27.6 307.4L27.8 311.8 25.1 309.4C24.7 309 24.2 309.2 23.9 309.3 23.7 309.6 23.6 310.1 23.7 310.4 23.7 310.4 23.8 310.5 23.8 310.5L27.7 314.2 27.9 320.2 19 311.9C18.6 311.6 18.1 311.7 17.8 311.9 17.6 312.2 17.5 312.7 17.7 313 17.7 313 17.8 313.1 17.8 313.1L27.9 322.5 28.3 334.8 17.4 329 13.5 315.7C13.4 315.2 12.9 315 12.4 315.2 11.9 315.4 11.7 315.9 11.9 316.3L15.4 327.9 10.1 325.1 8.5 320C8.4 319.5 7.9 319.2 7.4 319.5 6.9 319.6 6.7 320.2 6.9 320.6L7.9 324.1 4.1 322C3.8 321.8 3.1 322 2.9 322.3 2.7 322.6 2.7 323 2.9 323.3 3 323.4 3.1 323.6 3.3 323.6L7.2 325.7 3.7 326.7C3.2 326.9 2.9 327.4 3.2 327.8 3.2 327.8 3.3 328 3.3 328 3.4 328.3 3.9 328.4 4.3 328.3L9.4 326.7 14.6 329.6 3.1 333C2.5 333.1 2.3 333.7 2.6 334.1 2.6 334.1 2.6 334.2 2.6 334.2 2.8 334.5 3.3 334.6 3.7 334.6L16.9 330.7 27.8 336.5 17.3 343 3.8 339.8C3.3 339.7 2.9 340 2.8 340.4 2.7 340.9 2.9 341.3 3.4 341.4L15.2 344.3 10.1 347.5 5 346.3C4.6 346.2 4.1 346.5 4 346.9S4.2 347.8 4.6 347.9L8.1 348.7 4.4 351C4 351.3 3.9 351.7 4.1 352.1 4.4 352.6 4.8 352.7 5.3 352.4L9 350.1 8.1 353.6C8.1 353.8 8 354 8.2 354.3S8.6 354.7 8.9 354.7C9.3 354.8 9.7 354.6 9.8 354.1L11 349 16.1 345.9 13.3 357.8C13.3 358 13.2 358.3 13.4 358.6 13.5 358.7 13.8 358.9 14 359 14.5 359.1 14.9 358.8 15 358.3L18.2 344.8 28.7 338.3 29.1 350.6 19.7 360.8C19.5 361.1 19.4 361.5 19.5 361.8 19.5 361.8 19.6 362 19.6 362 20 362.3 20.5 362.2 20.8 362L29.1 353.2 29.2 359.1 25.5 363C25.4 363.3 25.2 363.8 25.4 364.1 25.4 364.1 25.5 364.2 25.5 364.2 25.9 364.5 26.4 364.4 26.7 364.2L29.2 361.5 29.3 365.9C29.4 366.1 29.4 366.3 29.5 366.5 29.6 366.7 29.9 366.9 30.3 366.9 30.8 366.8 31.3 366.5 31.1 366L31 361.6 33.7 364C34.1 364.4 34.6 364.3 34.9 364.1 35.2 363.7 35.1 363.2 34.9 362.9L31 359.2 30.9 353.2 39.7 361.5C40.1 361.8 40.6 361.7 40.9 361.5 41.1 360.8 41.1 360.2 40.7 359.9Z" fill="rgba(199, 199, 208, 1)"></path></g><defs><mask id="SvgjsMask1230"><rect width="600" height="400" fill="#ffffff"></rect></mask><filter id="SvgjsFilter1231"><feGaussianBlur stdDeviation="1"></feGaussianBlur></filter></defs></svg>